<?xml version="1.0" standalone="no"?>
<!DOCTYPE svg PUBLIC "-//W3C//DTD SVG 20010904//EN"
 "http://www.w3.org/TR/2001/REC-SVG-20010904/DTD/svg10.dtd">
<svg version="1.0" xmlns="http://www.w3.org/2000/svg"
 width="167.000000pt" height="167.000000pt" viewBox="0 0 167.000000 167.000000"
 preserveAspectRatio="xMidYMid meet">
<metadata>
Created by potrace 1.14, written by Peter Selinger 2001-2017
</metadata>
<g transform="translate(0.000000,167.000000) scale(0.100000,-0.100000)"
fill="#000000" stroke="none">
<path d="M362 1422 c-17 -16 -34 -42 -37 -58 -4 -16 -8 -35 -11 -42 -7 -23 27
-90 54 -109 20 -13 50 -18 111 -20 60 -1 87 -6 92 -16 5 -8 7 -147 5 -309 -5
-337 -4 -335 -86 -388 -109 -70 -142 -168 -70 -205 39 -20 62 -19 94 6 32 25
33 44 4 60 -19 10 -25 8 -49 -20 l-27 -33 -15 23 c-37 52 51 102 149 84 32 -6
128 -81 120 -94 -5 -8 11 -38 17 -31 2 3 20 29 41 57 21 29 39 53 41 53 1 0 3
-19 3 -42 -1 -69 1 -78 15 -78 10 0 13 21 13 89 -1 74 2 93 18 110 10 11 21
19 25 17 3 -2 6 -50 6 -105 0 -70 3 -101 11 -101 17 0 21 19 17 77 -4 48 -2
53 16 53 11 0 51 -29 88 -65 37 -36 70 -65 72 -65 3 0 37 29 170 148 53 47 40
63 -17 21 l-41 -30 -59 43 c-33 24 -74 51 -93 61 l-32 18 80 82 c81 82 166
212 193 291 28 85 16 209 -28 291 -28 52 -53 79 -135 143 -52 42 -67 59 -67
80 0 25 -3 24 -57 -29 -32 -30 -74 -67 -93 -81 -38 -27 -130 -78 -142 -78 -5
0 -8 41 -8 90 0 73 -3 90 -15 90 -8 0 -15 -4 -15 -8 0 -5 -25 -36 -55 -70 -86
-95 -194 -135 -270 -100 -53 24 -67 109 -25 153 50 53 140 37 140 -25 0 -37
-18 -48 -36 -21 -19 27 -50 27 -64 0 -14 -26 -8 -43 25 -65 50 -33 105 14 105
91 0 78 -116 115 -178 57z m513 -530 c-1 -337 -2 -358 -20 -380 -11 -12 -22
-22 -25 -22 -3 0 -5 167 -5 370 0 385 1 389 40 390 7 0 10 -118 10 -358z m104
321 c94 -55 150 -148 156 -260 4 -79 -18 -219 -44 -277 -16 -35 -170 -206
-186 -206 -3 0 -5 10 -5 23 0 14 28 51 78 103 86 89 122 152 122 216 0 48 -14
71 -78 138 -44 45 -56 72 -50 111 4 32 24 35 32 4 4 -15 13 -25 25 -25 48 0
24 73 -26 78 -59 6 -79 -56 -43 -135 18 -41 18 -43 1 -55 -10 -7 -26 -28 -35
-46 -16 -32 -16 -35 1 -65 22 -37 62 -47 87 -22 21 21 21 54 0 62 -18 7 -36
-15 -29 -34 7 -19 -12 -25 -28 -8 -26 26 4 94 41 91 62 -4 92 -90 59 -169 -12
-27 -138 -167 -151 -167 -4 0 -1 636 3 663 2 13 24 7 70 -20z m-181 -244 c-3
-248 -3 -252 -25 -267 l-23 -14 0 255 c0 233 2 257 18 266 9 6 21 11 25 11 4
0 6 -113 5 -251z m-1 -365 c1 -69 -4 -75 -45 -45 -15 10 -37 22 -50 26 -13 3
-21 12 -19 18 5 16 99 79 106 71 3 -3 7 -35 8 -70z m-102 -48 c52 -22 100 -62
102 -86 1 -11 0 -20 -2 -20 -3 0 -32 14 -66 31 -34 18 -82 34 -107 37 l-46 5
30 23 c34 28 43 29 89 10z"/>
<path d="M400 1142 c-14 -11 -19 -23 -14 -35 9 -24 50 -19 48 6 -1 10 5 17 17
17 15 0 19 -7 19 -31 0 -24 -12 -42 -54 -83 l-54 -52 39 -41 c21 -23 39 -52
39 -64 0 -14 -18 -39 -44 -64 l-45 -41 36 -36 c34 -34 35 -37 23 -70 -16 -45
-6 -86 25 -100 48 -22 96 12 79 56 -9 24 -44 21 -44 -4 0 -22 -28 -28 -36 -7
-10 26 16 66 66 104 l50 37 -35 34 c-38 37 -57 87 -43 114 4 10 26 32 48 49
l40 33 -36 29 c-32 27 -35 34 -29 61 10 42 7 76 -6 92 -16 19 -63 17 -89 -4z"/>
<path d="M1190 633 c-51 -48 -96 -96 -102 -106 -20 -37 4 -30 50 16 26 26 55
47 63 47 20 0 39 -20 39 -42 0 -19 -15 -24 -25 -8 -12 19 -35 10 -35 -14 0
-43 75 -43 86 -1 8 34 -3 60 -31 73 -33 15 -32 32 3 32 22 0 30 7 44 40 9 22
12 42 8 45 -5 3 -50 -34 -100 -82z"/>
</g>
</svg>
