<svg width="19" height="19" viewBox="0 0 19 19" fill="none" xmlns="http://www.w3.org/2000/svg">
<path d="M9.5 0C4.25585 0 0 4.25585 0 9.5C0 14.7442 4.25585 19 9.5 19C14.7442 19 19 14.7442 19 9.5C19 4.25585 14.7442 0 9.5 0ZM13.3575 13.978C13.1966 13.978 13.097 13.9282 12.9476 13.8401C10.5573 12.3998 7.77621 12.3385 5.02964 12.9016C4.88024 12.9399 4.68488 13.0012 4.57379 13.0012C4.20222 13.0012 3.96855 12.7063 3.96855 12.396C3.96855 12.0014 4.20222 11.8137 4.48952 11.7524C7.62681 11.0591 10.8331 11.1204 13.5681 12.756C13.8018 12.9054 13.9397 13.0395 13.9397 13.3881C13.9397 13.7367 13.6677 13.978 13.3575 13.978ZM14.3879 11.4651C14.1887 11.4651 14.0546 11.377 13.9167 11.3042C11.5226 9.8869 7.95242 9.31613 4.77681 10.178C4.59294 10.2278 4.49335 10.2776 4.32097 10.2776C3.91109 10.2776 3.57782 9.94436 3.57782 9.53448C3.57782 9.1246 3.77702 8.85262 4.17157 8.74153C5.23649 8.44274 6.3244 8.22056 7.91794 8.22056C10.404 8.22056 12.8058 8.8373 14.6982 9.96351C15.0085 10.1474 15.131 10.3849 15.131 10.7181C15.1272 11.1319 14.8054 11.4651 14.3879 11.4651ZM15.5754 8.54617C15.3762 8.54617 15.2536 8.49637 15.0813 8.39677C12.3538 6.76875 7.47742 6.37802 4.32097 7.25907C4.18306 7.29738 4.01069 7.35867 3.82681 7.35867C3.32117 7.35867 2.93427 6.96411 2.93427 6.45464C2.93427 5.93367 3.25605 5.63871 3.60081 5.53911C4.94919 5.14456 6.45847 4.95685 8.10181 4.95685C10.8982 4.95685 13.8286 5.53911 15.97 6.7879C16.2687 6.96028 16.4641 7.19778 16.4641 7.65363C16.4641 8.1746 16.0427 8.54617 15.5754 8.54617Z" fill="#EBE9E5"/>
</svg>
